<svg id="logos" xmlns="http://www.w3.org/2000/svg" viewBox="0 0 665.39 271.66"><defs><style>.cls-1{fill:#c4c4c4;}.cls-2{fill:#231f20;}</style></defs><title>bootcamp-terra_studios-final_logo</title><g id="final"><polyline points="66.64 60.61 0 60.61 0 4.47 80.97 4.47 165.16 4.47 165.16 257.39 85.87 257.39"/><path class="cls-1" d="M137,232.16v-144c0-27.53,27.58-27.53,27.58-27.53h66.63V4.48H122.24A59.25,59.25,0,0,0,93.15,12C80.27,19.19,66.64,33.31,66.64,60.61V257.39h98.51"/><path class="cls-2" d="M261.71,108.09h29.92v8.8H281.51v52.79h-9.68V116.89H261.71Z"/><path class="cls-2" d="M305.53,134.05h13.29v8.8H305.53v18h16.72v8.79h-26.4V108.09h26.4v8.8H305.53Z"/><path class="cls-2" d="M348.47,169.68c-.52-1.58-.88-2.55-.88-7.56v-9.68c0-5.72-1.93-7.83-6.33-7.83h-3.35v25.07h-9.68V108.09h14.61c10,0,14.35,4.66,14.35,14.16v4.84c0,6.34-2,10.48-6.34,12.5,4.84,2,6.42,6.69,6.42,13.11v9.51c0,3,.09,5.19,1.06,7.47Zm-10.56-52.79v18.92h3.79c3.61,0,5.81-1.59,5.81-6.52v-6.07c0-4.4-1.5-6.33-4.93-6.33Z"/><path class="cls-2" d="M383.85,169.68c-.53-1.58-.88-2.55-.88-7.56v-9.68c0-5.72-1.94-7.83-6.34-7.83h-3.34v25.07h-9.68V108.09h14.61c10,0,14.34,4.66,14.34,14.16v4.84c0,6.34-2,10.48-6.33,12.5,4.84,2,6.42,6.69,6.42,13.11v9.51c0,3,.09,5.19,1.06,7.47Zm-10.56-52.79v18.92h3.78c3.61,0,5.81-1.59,5.81-6.52v-6.07c0-4.4-1.49-6.33-4.93-6.33Z"/><path class="cls-2" d="M430.31,169.68h-9.77l-1.67-11.17H407l-1.67,11.17h-8.89l9.86-61.59h14.17Zm-22.08-19.53h9.32L412.89,119Z"/><path class="cls-2" d="M461.47,107.38c9.41,0,14.25,5.64,14.25,15.49v1.94h-9.15v-2.56c0-4.4-1.76-6.07-4.84-6.07s-4.84,1.67-4.84,6.07c0,12.68,18.92,15.05,18.92,32.65,0,9.86-4.93,15.49-14.43,15.49S447,164.76,447,154.9v-3.78h9.15v4.4c0,4.4,1.93,6,5,6s5-1.58,5-6c0-12.67-18.92-15.05-18.92-32.65C447.21,113,452.05,107.38,461.47,107.38Z"/><path class="cls-2" d="M478.54,108.09h29.92v8.8H498.34v52.79h-9.68V116.89H478.54Z"/><path class="cls-2" d="M521.92,108.09v47.52c0,4.4,1.94,6,5,6s5-1.58,5-6V108.09h9.15V155c0,9.86-4.92,15.49-14.43,15.49s-14.43-5.63-14.43-15.49v-46.9Z"/><path class="cls-2" d="M547.7,108.09H563c9.68,0,14.44,5.36,14.44,15.22v31.15c0,9.86-4.76,15.22-14.44,15.22H547.7Zm9.68,8.8v44h5.46c3.08,0,4.93-1.59,4.93-6v-32c0-4.4-1.85-6-4.93-6Z"/><path class="cls-2" d="M583.61,108.09h9.68v61.59h-9.68Z"/><path class="cls-2" d="M599.53,122.87c0-9.85,5.2-15.49,14.7-15.49s14.69,5.64,14.69,15.49v32c0,9.86-5.19,15.49-14.69,15.49s-14.7-5.63-14.7-15.49Zm9.68,32.65c0,4.4,1.94,6.07,5,6.07s5-1.67,5-6.07V122.25c0-4.4-1.93-6.07-5-6.07s-5,1.67-5,6.07Z"/><path class="cls-2" d="M648.2,107.38c9.41,0,14.25,5.64,14.25,15.49v1.94H653.3v-2.56c0-4.4-1.76-6.07-4.84-6.07s-4.84,1.67-4.84,6.07c0,12.68,18.92,15.05,18.92,32.65,0,9.86-4.93,15.49-14.43,15.49s-14.43-5.63-14.43-15.49v-3.78h9.15v4.4c0,4.4,1.93,6,5,6s5-1.58,5-6c0-12.67-18.92-15.05-18.92-32.65C633.94,113,638.78,107.38,648.2,107.38Z"/></g></svg>