<svg id="logos" xmlns="http://www.w3.org/2000/svg" viewBox="0 0 665.39 271.66"><defs><style>.cls-1{fill:#231f20;}.cls-2{fill:#231f57;}.cls-3{fill:#72c48f;}</style></defs><title>bootcamp-terra_studios-final_logo</title><g id="final"><path class="cls-1" d="M261.66,105.87h32.08v9.43H282.89v56.62H272.51V115.3H261.66Z"/><path class="cls-1" d="M308.65,133.71H322.9v9.43H308.65v19.35h17.93v9.43H298.27v-66h28.31v9.43H308.65Z"/><path class="cls-1" d="M354.69,171.92c-.57-1.7-.94-2.74-.94-8.11V153.43c0-6.14-2.08-8.4-6.8-8.4h-3.58v26.89H333v-66h15.66c10.76,0,15.38,5,15.38,15.19v5.19c0,6.79-2.17,11.23-6.79,13.4,5.19,2.17,6.89,7.17,6.89,14.06V163.9c0,3.21.09,5.57,1.13,8ZM343.37,115.3v20.29h4.06c3.86,0,6.22-1.7,6.22-7V122.1c0-4.72-1.6-6.8-5.28-6.8Z"/><path class="cls-1" d="M392.62,171.92c-.57-1.7-.94-2.74-.94-8.11V153.43c0-6.14-2.08-8.4-6.8-8.4H381.3v26.89H370.92v-66h15.66c10.76,0,15.38,5,15.38,15.19v5.19c0,6.79-2.17,11.23-6.79,13.4,5.19,2.17,6.89,7.17,6.89,14.06V163.9c0,3.21.09,5.57,1.13,8ZM381.3,115.3v20.29h4.05c3.87,0,6.23-1.7,6.23-7V122.1c0-4.72-1.6-6.8-5.28-6.8Z"/><path class="cls-1" d="M442.44,171.92H432l-1.79-12H417.43l-1.79,12h-9.53l10.57-66h15.19ZM418.75,151h10l-5-33.4Z"/><path class="cls-1" d="M475.84,105.11c10.09,0,15.28,6,15.28,16.61v2.08h-9.81v-2.74c0-4.72-1.89-6.51-5.19-6.51s-5.19,1.79-5.19,6.51c0,13.59,20.29,16.14,20.29,35,0,10.57-5.29,16.61-15.48,16.61s-15.47-6-15.47-16.61V152h9.81v4.72c0,4.72,2.08,6.42,5.38,6.42s5.38-1.7,5.38-6.42c0-13.59-20.29-16.14-20.29-35C460.55,111.15,465.74,105.11,475.84,105.11Z"/><path class="cls-1" d="M494.14,105.87h32.08v9.43H515.37v56.62H505V115.3H494.14Z"/><path class="cls-1" d="M540.65,105.87v50.95c0,4.72,2.08,6.42,5.38,6.42s5.38-1.7,5.38-6.42V105.87h9.82v50.29c0,10.57-5.29,16.61-15.48,16.61s-15.47-6-15.47-16.61V105.87Z"/><path class="cls-1" d="M568.3,105.87h16.42c10.38,0,15.47,5.76,15.47,16.32V155.6c0,10.57-5.09,16.32-15.47,16.32H568.3Zm10.38,9.43v47.19h5.85c3.3,0,5.28-1.7,5.28-6.42V121.72c0-4.72-2-6.42-5.28-6.42Z"/><path class="cls-1" d="M606.79,105.87h10.38v66H606.79Z"/><path class="cls-1" d="M623.87,121.72c0-10.57,5.57-16.61,15.76-16.61s15.76,6,15.76,16.61v34.35c0,10.57-5.57,16.61-15.76,16.61s-15.76-6-15.76-16.61Zm10.38,35c0,4.72,2.07,6.51,5.38,6.51s5.38-1.79,5.38-6.51V121.06c0-4.72-2.08-6.51-5.38-6.51s-5.38,1.79-5.38,6.51Z"/><polyline class="cls-2" points="66.64 60.61 0 60.61 0 4.47 80.97 4.47 165.16 4.47 165.16 257.39 85.87 257.39"/><path class="cls-3" d="M137,232.16v-144c0-27.53,27.58-27.53,27.58-27.53h66.63V4.48H122.24A59.25,59.25,0,0,0,93.15,12C80.27,19.19,66.64,33.31,66.64,60.61V257.39h98.51"/></g></svg>