<svg id="Layer_1" data-name="Layer 1" xmlns="http://www.w3.org/2000/svg" viewBox="0 0 364.51 470.03"><defs><style>.cls-1{fill:#c4c4c4;}</style></defs><title>bootcamp-terra_studios-final_logo</title><path d="M15.28,413.37H42.5v8H33.29v48h-8.8v-48H15.28Z"/><path d="M55.14,437H67.22v8H55.14v16.4h15.2v8h-24v-56h24v8H55.14Z"/><path d="M94.19,469.39c-.48-1.44-.8-2.32-.8-6.89v-8.8c0-5.2-1.76-7.12-5.76-7.12h-3v22.81H75.78v-56H89.07c9.12,0,13,4.24,13,12.88v4.4c0,5.76-1.84,9.53-5.76,11.37,4.4,1.84,5.84,6.08,5.84,11.92v8.65c0,2.72.08,4.72,1,6.8Zm-9.6-48v17.21H88c3.28,0,5.28-1.45,5.28-5.93v-5.52c0-4-1.36-5.76-4.48-5.76Z"/><path d="M126.36,469.39c-.48-1.44-.8-2.32-.8-6.89v-8.8c0-5.2-1.76-7.12-5.76-7.12h-3v22.81H108v-56h13.29c9.12,0,13,4.24,13,12.88v4.4c0,5.76-1.84,9.53-5.76,11.37,4.4,1.84,5.84,6.08,5.84,11.92v8.65c0,2.72.08,4.72,1,6.8Zm-9.6-48v17.21h3.44c3.28,0,5.28-1.45,5.28-5.93v-5.52c0-4-1.36-5.76-4.48-5.76Z"/><path d="M168.61,469.39h-8.88l-1.52-10.17H147.4l-1.52,10.17H137.8l9-56h12.89Zm-20.09-17.77H157l-4.24-28.33Z"/><path d="M196.94,412.72c8.56,0,13,5.13,13,14.09v1.76h-8.33v-2.32c0-4-1.6-5.52-4.4-5.52s-4.4,1.52-4.4,5.52c0,11.53,17.21,13.69,17.21,29.69,0,9-4.49,14.09-13.13,14.09s-13.13-5.12-13.13-14.09V452.5h8.33v4c0,4,1.76,5.44,4.56,5.44s4.56-1.44,4.56-5.44c0-11.52-17.21-13.68-17.21-29.69C184,417.85,188.38,412.72,196.94,412.72Z"/><path d="M212.46,413.37h27.21v8h-9.2v48h-8.8v-48h-9.21Z"/><path d="M251.92,413.37v43.21c0,4,1.76,5.44,4.56,5.44s4.56-1.44,4.56-5.44V413.37h8.32V456c0,9-4.48,14.09-13.12,14.09S243.11,465,243.11,456V413.37Z"/><path d="M275.36,413.37h13.93c8.8,0,13.12,4.88,13.12,13.84v28.33c0,9-4.32,13.85-13.12,13.85H275.36Zm8.81,8v40h5c2.8,0,4.48-1.44,4.48-5.44V426.81c0-4-1.68-5.44-4.48-5.44Z"/><path d="M308,413.37h8.8v56H308Z"/><path d="M322.49,426.81c0-9,4.73-14.09,13.37-14.09s13.36,5.13,13.36,14.09v29.13c0,9-4.72,14.09-13.36,14.09s-13.37-5.12-13.37-14.09Zm8.81,29.69c0,4,1.76,5.52,4.56,5.52s4.56-1.52,4.56-5.52V426.25c0-4-1.76-5.52-4.56-5.52s-4.56,1.52-4.56,5.52Z"/><polyline points="106.86 87.14 3.41 87.14 3.41 0 129.1 0 259.81 0 259.81 392.64 136.72 392.64"/><path class="cls-1" d="M216,353.49V129.89c0-42.74,42.81-42.74,42.81-42.74H362.3V0H193.18A92,92,0,0,0,148,11.6c-20,11.25-41.16,33.17-41.16,75.55v305.5h153"/></svg>